#!OML:ASF F:\VICON\USERDATA\INSTALL\Justin_Nancy\Justin_Nancy.ASF
:FULLY-SPECIFIED
:DEGREES
16
root 12.3613 17.4757 -27.6769 -2.37721 -7.45241 3.5883
lowerback 6.5076 0.819782 -2.47827
upperback 0.909762 0.96284 1.60207
thorax -2.77843 0.511379 2.96304
lowerneck -12.2897 -2.38903 -9.67813
upperneck 20.5889 -1.94026 3.13136
head 8.58693 -1.35218 2.45516
rclavicle 3.57812e-015 1.19271e-014
rhumerus -32.7407 -8.30811 -78.7739
rradius 45.7961
rwrist 0.897629
rhand -16.4527 11.2817
rfingers 7.12502
rthumb 9.76346 -18.4719
lclavicle 3.57812e-015 1.19271e-014
lhumerus -36.2471 16.616 80.8003
lradius 20.6959
lwrist -17.2539
lhand -11.9896 28.5885
lfingers 7.12502
lthumb 14.067 58.0924
rfemur -18.2348 1.47849 18.5254
rtibia 72.5442
rfoot 5.91094 -2.47846
rtoes 9.5183
lfemur -13.6088 -0.0222652 -25.0651
ltibia 29.7641
lfoot -10.3712 2.7106
ltoes -5.27799
17
root 12.3483 17.4701 -27.4507 -2.38722 -7.24676 3.62915
lowerback 6.60763 0.693363 -2.61634
upperback 0.831625 0.786126 1.71502
thorax -2.90618 0.428489 3.17336
lowerneck -12.2193 -2.34429 -9.51793
upperneck 20.5886 -1.86059 2.85847
head 8.56522 -1.33058 2.34481
rclavicle -1.99282e-014 -4.77083e-015
rhumerus -33.2383 -8.25702 -78.6984
rradius 45.401
rwrist 0.937655
rhand -16.2051 10.6839
rfingers 7.12502
rthumb 10.0022 -19.0584
lclavicle -1.99282e-014 -4.77083e-015
lhumerus -35.9675 16.2565 81.1546
lradius 20.9176
lwrist -17.2528
lhand -11.8864 27.8463
lfingers 7.12502
lthumb 14.1665 57.3433
rfemur -19.6806 0.654995 18.4806
rtibia 72.4456
rfoot 3.87516 -2.88935
rtoes 6.78882
lfemur -12.856 0.00427885 -25.1834
ltibia 29.9057
lfoot -10.845 2.28293
ltoes -2.26909
18
root 12.3345 17.458 -27.2288 -2.42527 -6.78835 3.91127
lowerback 6.75667 0.4448 -2.71729
upperback 0.798004 0.439383 1.55329
thorax -2.99766 0.258104 3.09393
lowerneck -12.3201 -2.3177 -9.32182
upperneck 20.4949 -1.85053 2.83562
head 8.54753 -1.31046 2.30443
rclavicle 1.44616e-014 -1.66979e-014
rhumerus -33.6201 -8.64943 -78.7184
rradius 44.4399
rwrist 1.73412
rhand -15.5754 11.9618
rfingers 7.12502
rthumb 10.6097 -17.7503
lclavicle 1.44616e-014 -1.66979e-014
lhumerus -35.3613 15.7178 81.2831
lradius 21.0014
lwrist -17.3413
lhand -11.5064 27.5347
lfingers 7.12502
lthumb 14.5326 57.0056
rfemur -21.1166 -0.339957 18.1755
rtibia 72.131
rfoot 1.95521 -2.30858
rtoes 7.0188
lfemur -12.1282 -0.289963 -25.5958
ltibia 30.079
lfoot -11.6795 2.36005
ltoes -1.80367
19
root 12.3218 17.4486 -27.0047 -2.37797 -6.47543 4.15477
lowerback 6.07183 0.296895 -3.08619
upperback 1.31124 0.238053 1.66865
thorax -2.07156 0.137092 3.43928
lowerneck -12.8853 -2.31178 -9.4013
upperneck 20.2838 -1.74663 2.76077
head 8.57358 -1.26639 2.29923
rclavicle 4.52235e-015 6.36111e-015
rhumerus -32.9677 -9.02327 -78.5331
rradius 43.4763
rwrist 2.3774
rhand -15.6286 11.7306
rfingers 7.12502
rthumb 10.5584 -17.9842
lclavicle 4.52235e-015 6.36111e-015
lhumerus -33.9437 15.3617 82.0846
lradius 21.222
lwrist -17.2657
lhand -11.7315 27.6901
lfingers 7.12502
lthumb 14.3157 57.1766
rfemur -22.5649 -1.14284 17.9627
rtibia 71.5447
rfoot 0.0456985 -2.00945
rtoes 6.40918
lfemur -11.4972 -0.573809 -25.9724
ltibia 30.3458
lfoot -12.3518 2.7213
ltoes -1.87745
20
root 12.3001 17.4295 -26.7967 -2.32727 -6.13004 4.50233
lowerback 6.96086 0.124337 -3.6554
upperback 0.792695 -0.0587745 1.7041
thorax -3.07935 0.0238985 3.82945
lowerneck -13.0219 -1.99519 -9.27032
upperneck 20.8802 -1.31816 2.73805
head 8.77136 -1.07092 2.32412
rclavicle -2.88238e-015 7.95139e-016
rhumerus -33.8069 -8.99985 -78.3718
rradius 42.7332
rwrist 2.7708
rhand -15.9015 10.93
rfingers 7.12502
rthumb 10.2952 -18.798
lclavicle -2.88238e-015 7.95139e-016
lhumerus -34.1691 14.5412 82.4232
lradius 21.7154
lwrist -16.5615
lhand -12.2734 28.2194
lfingers 7.12502
lthumb 13.7936 57.7421
rfemur -24.0858 -1.91034 17.7116
rtibia 70.8516
rfoot -1.51047 -1.98863
rtoes 5.49521
lfemur -10.9379 -0.632025 -26.3924
ltibia 30.5862
lfoot -12.9639 2.62758
ltoes -1.10516
21
root 12.2771 17.4048 -26.5912 -2.23343 -5.64792 4.66798
lowerback 6.84869 -0.12826 -3.86257
upperback 0.869171 -0.407267 1.68139
thorax -2.90335 -0.152837 3.95399
lowerneck -12.9003 -1.99993 -9.18975
upperneck 20.4843 -1.33749 2.65461
head 8.61397 -1.07355 2.27636
rclavicle -1.33186e-014 -2.06736e-014
rhumerus -33.6658 -9.51136 -78.3727
rradius 41.6631
rwrist 3.32389
rhand -16.2558 10.2025
rfingers 7.12502
rthumb 9.95335 -19.5422
lclavicle -1.33186e-014 -2.06736e-014
lhumerus -33.4567 13.4769 82.9603
lradius 22.2195
lwrist -15.6836
lhand -12.0937 28.1824
lfingers 7.12502
lthumb 13.9667 57.6932
rfemur -25.4631 -2.73528 17.6921
rtibia 69.9377
rfoot -3.39623 -2.11863
rtoes 5.23139
lfemur -10.4366 -0.541378 -26.62
ltibia 30.8475
lfoot -13.711 2.46562
ltoes -2.25374
22
root 12.2632 17.3817 -26.3619 -2.23493 -5.60252 5.00695
lowerback 6.84315 -0.239214 -4.1751
upperback 0.781878 -0.579543 1.66383
thorax -2.97114 -0.231817 4.12928
lowerneck -12.5503 -1.96799 -9.3939
upperneck 20.3474 -1.32053 2.8084
head 8.50487 -1.06448 2.36392
rclavicle -1.89839e-014 1.90833e-014
rhumerus -33.778 -9.85091 -78.1573
rradius 40.3777
rwrist 3.88885
rhand -16.4932 10.3904
rfingers 7.12502
rthumb 9.72434 -19.3651
lclavicle -1.89839e-014 1.90833e-014
lhumerus -33.143 12.4333 83.5042
lradius 22.7202
lwrist -14.6388
lhand -12.4002 27.8503
lfingers 7.12502
lthumb 13.6713 57.3813
rfemur -26.686 -3.22791 17.4397
rtibia 68.8213
rfoot -4.77726 -2.3423
rtoes 4.81851
lfemur -9.69349 -0.491432 -27.0874
ltibia 31.0428
lfoot -14.5485 2.86049
ltoes -3.32128
23
root 12.2446 17.3574 -26.1301 -2.26523 -5.60572 5.12178
lowerback 6.86913 -0.285189 -4.64705
upperback 0.814798 -0.667585 1.96475
thorax -2.93356 -0.27051 4.72038
lowerneck -12.6397 -1.87422 -9.68535
upperneck 20.5095 -1.11285 2.7885
head 8.5665 -0.994712 2.42988
rclavicle 1.98785e-016 3.33958e-014
rhumerus -34.251 -9.41996 -77.8258
rradius 40.1739
rwrist 3.65728
rhand -16.3814 10.0273
rfingers 7.12502
rthumb 9.83222 -19.7231
lclavicle 1.98785e-016 3.33958e-014
lhumerus -32.514 11.756 84.3215
lradius 23.0432
lwrist -14.2033
lhand -12.5926 27.9448
lfingers 7.12502
lthumb 13.4858 57.4882
rfemur -27.7734 -3.50125 17.5002
rtibia 67.3949
rfoot -5.61193 -2.61966
rtoes 6.3789
lfemur -8.84587 -0.329995 -27.2756
ltibia 31.1326
lfoot -15.3378 3.03257
ltoes -3.28632
24
root 12.2216 17.3353 -25.9039 -2.27441 -5.38917 5.43627
lowerback 7.36874 -0.349542 -4.98218
upperback 0.609045 -0.806398 1.90385
thorax -3.40768 -0.316739 4.87189
lowerneck -12.75 -1.92827 -9.49486
upperneck 20.5669 -1.17494 2.59377
head 8.60851 -1.03033 2.32538
rclavicle -1.73937e-015 1.11319e-014
rhumerus -34.7695 -9.94739 -77.6244
rradius 39.3803
rwrist 3.93888
rhand -16.2967 9.77684
rfingers 7.12502
rthumb 9.91394 -19.9697
lclavicle -1.73937e-015 1.11319e-014
lhumerus -32.2066 10.3307 84.7888
lradius 23.5264
lwrist -13.658
lhand -12.3781 28.4754
lfingers 7.12502
lthumb 13.6926 58.005
rfemur -28.8071 -3.94079 17.3704
rtibia 65.7042
rfoot -6.63237 -2.88014
rtoes 5.37397
lfemur -7.9919 -0.165982 -27.6634
ltibia 31.0081
lfoot -15.9412 2.92969
ltoes -3.33428
25
root 12.2047 17.3221 -25.6726 -2.33755 -5.25653 5.60524
lowerback 7.39123 -0.418779 -4.83247
upperback 0.840935 -0.892787 1.6675
thorax -3.17432 -0.375464 4.54431
lowerneck -13.4492 -2.05401 -9.28325
upperneck 20.7433 -1.35876 2.76081
head 8.80591 -1.08368 2.3267
rclavicle -2.85753e-014 1.74931e-014
rhumerus -34.7625 -10.8134 -77.7041
rradius 38.6562
rwrist 4.18419
rhand -16.0154 10.0178
rfingers 7.12502
rthumb 10.1853 -19.7156
lclavicle -2.85753e-014 1.74931e-014
lhumerus -31.2443 8.74109 85.1021
lradius 23.9677
lwrist -12.7342
lhand -12.722 27.8394
lfingers 7.12502
lthumb 13.3612 57.391
rfemur -29.596 -4.35905 17.3734
rtibia 63.7299
rfoot -7.61625 -3.33956
rtoes 1.5026
lfemur -6.96304 -0.0648254 -27.9348
ltibia 30.7397
lfoot -16.4617 3.06138
ltoes -3.75955
